<svg width="50" height="50" viewBox="0 0 50 50" fill="none" xmlns="http://www.w3.org/2000/svg">
<path fill-rule="evenodd" clip-rule="evenodd" d="M14.6932 0.15C17.3591 0.0272727 18.2091 0 25 0C31.7909 0 32.6409 0.0295454 35.3045 0.15C37.9682 0.270454 39.7864 0.695455 41.3773 1.31136C43.0432 1.94091 44.5545 2.925 45.8045 4.19773C47.0773 5.44545 48.0591 6.95455 48.6864 8.62273C49.3045 10.2136 49.7273 12.0318 49.85 14.6909C49.9727 17.3614 50 18.2114 50 25C50 31.7909 49.9705 32.6409 49.85 35.3068C49.7295 37.9659 49.3045 39.7841 48.6864 41.375C48.0591 43.0434 47.0756 44.555 45.8045 45.8045C44.5545 47.0773 43.0432 48.0591 41.3773 48.6864C39.7864 49.3045 37.9682 49.7273 35.3091 49.85C32.6409 49.9727 31.7909 50 25 50C18.2091 50 17.3591 49.9705 14.6932 49.85C12.0341 49.7295 10.2159 49.3045 8.625 48.6864C6.95664 48.059 5.44505 47.0756 4.19545 45.8045C2.92359 44.5561 1.93935 43.0452 1.31136 41.3773C0.695455 39.7864 0.272727 37.9682 0.15 35.3091C0.0272727 32.6386 0 31.7886 0 25C0 18.2091 0.0295454 17.3591 0.15 14.6955C0.270454 12.0318 0.695455 10.2136 1.31136 8.62273C1.94028 6.95473 2.92527 5.44389 4.19773 4.19545C5.44555 2.92387 6.95562 1.93964 8.62273 1.31136C10.2136 0.695455 12.0318 0.272727 14.6909 0.15H14.6932ZM35.1023 4.65C32.4659 4.52955 31.675 4.50455 25 4.50455C18.325 4.50455 17.5341 4.52955 14.8977 4.65C12.4591 4.76136 11.1364 5.16818 10.2545 5.51136C9.08864 5.96591 8.25455 6.50455 7.37955 7.37955C6.5501 8.18648 5.91177 9.16882 5.51136 10.2545C5.16818 11.1364 4.76136 12.4591 4.65 14.8977C4.52955 17.5341 4.50455 18.325 4.50455 25C4.50455 31.675 4.52955 32.4659 4.65 35.1023C4.76136 37.5409 5.16818 38.8636 5.51136 39.7455C5.91136 40.8295 6.55 41.8136 7.37955 42.6205C8.18636 43.45 9.17045 44.0886 10.2545 44.4886C11.1364 44.8318 12.4591 45.2386 14.8977 45.35C17.5341 45.4705 18.3227 45.4955 25 45.4955C31.6773 45.4955 32.4659 45.4705 35.1023 45.35C37.5409 45.2386 38.8636 44.8318 39.7455 44.4886C40.9114 44.0341 41.7455 43.4955 42.6205 42.6205C43.45 41.8136 44.0886 40.8295 44.4886 39.7455C44.8318 38.8636 45.2386 37.5409 45.35 35.1023C45.4705 32.4659 45.4955 31.675 45.4955 25C45.4955 18.325 45.4705 17.5341 45.35 14.8977C45.2386 12.4591 44.8318 11.1364 44.4886 10.2545C44.0341 9.08864 43.4955 8.25455 42.6205 7.37955C41.8135 6.55016 40.8311 5.91184 39.7455 5.51136C38.8636 5.16818 37.5409 4.76136 35.1023 4.65ZM21.8068 32.7068C23.5901 33.4492 25.5759 33.5494 27.4248 32.9903C29.2738 32.4312 30.8713 31.2475 31.9446 29.6415C33.0178 28.0354 33.5001 26.1065 33.3092 24.1843C33.1183 22.2621 32.2659 20.4658 30.8977 19.1023C30.0255 18.2306 28.9709 17.5632 27.8098 17.1481C26.6488 16.7329 25.4101 16.5804 24.1829 16.7014C22.9558 16.8224 21.7708 17.214 20.7132 17.848C19.6556 18.482 18.7517 19.3426 18.0666 20.3678C17.3815 21.3931 16.9322 22.5575 16.7512 23.7772C16.5701 24.9969 16.6617 26.2416 17.0194 27.4216C17.3771 28.6017 17.992 29.6877 18.8198 30.6016C19.6476 31.5155 20.6678 32.2345 21.8068 32.7068ZM15.9136 15.9136C17.1069 14.7204 18.5235 13.7739 20.0825 13.1281C21.6415 12.4823 23.3125 12.1499 25 12.1499C26.6875 12.1499 28.3585 12.4823 29.9175 13.1281C31.4765 13.7739 32.8931 14.7204 34.0864 15.9136C35.2796 17.1069 36.2261 18.5235 36.8719 20.0825C37.5177 21.6415 37.8501 23.3125 37.8501 25C37.8501 26.6875 37.5177 28.3585 36.8719 29.9175C36.2261 31.4765 35.2796 32.8931 34.0864 34.0864C31.6765 36.4962 28.408 37.8501 25 37.8501C21.592 37.8501 18.3235 36.4962 15.9136 34.0864C13.5038 31.6765 12.1499 28.408 12.1499 25C12.1499 21.592 13.5038 18.3235 15.9136 15.9136ZM40.7 14.0636C40.9957 13.7847 41.2324 13.4493 41.3961 13.0772C41.5599 12.7052 41.6473 12.304 41.6532 11.8976C41.6591 11.4911 41.5835 11.0876 41.4306 10.7109C41.2778 10.3343 41.051 9.99207 40.7635 9.70463C40.4761 9.4172 40.1339 9.19036 39.7573 9.03754C39.3806 8.88472 38.9771 8.80904 38.5706 8.81496C38.1642 8.82089 37.763 8.9083 37.391 9.07204C37.0189 9.23577 36.6835 9.47249 36.4045 9.76818C35.8621 10.3432 35.5651 11.1071 35.5766 11.8976C35.5881 12.688 35.9073 13.4429 36.4663 14.0019C37.0253 14.5609 37.7801 14.8801 38.5706 14.8916C39.3611 14.9031 40.1249 14.6061 40.7 14.0636Z" fill="#A192AE"/>
</svg>
