<svg width="160" height="160" viewBox="0 0 160 160" fill="none" xmlns="http://www.w3.org/2000/svg">
<path d="M140 46.6667H20V20H140V46.6667ZM86.6667 126.667C86.6667 131.333 87.5333 135.8 89 140H26.6667V53.3333H133.333V87.2667C131.133 86.9333 128.933 86.6667 126.667 86.6667C104.6 86.6667 86.6667 104.6 86.6667 126.667ZM100 86.6667V76.6667C100 74.8 98.5333 73.3333 96.6667 73.3333H63.3333C61.4667 73.3333 60 74.8 60 76.6667V86.6667H100ZM133.333 120V100H120V120H100V133.333H120V153.333H133.333V133.333H153.333V120H133.333Z" fill="#F2D262"/>
</svg>
