<svg width="134" height="134" viewBox="0 0 134 134" fill="none" xmlns="http://www.w3.org/2000/svg">
<path d="M120 26.6667H0V0H120V26.6667ZM66.6667 106.667C66.6667 111.333 67.5333 115.8 69 120H6.66667V33.3333H113.333V67.2667C111.133 66.9333 108.933 66.6667 106.667 66.6667C84.6 66.6667 66.6667 84.6 66.6667 106.667ZM80 66.6667V56.6667C80 54.8 78.5333 53.3333 76.6667 53.3333H43.3333C41.4667 53.3333 40 54.8 40 56.6667V66.6667H80ZM113.333 100V80H100V100H80V113.333H100V133.333H113.333V113.333H133.333V100H113.333Z" fill="#F2D262"/>
</svg>
