<svg width="285" height="285" viewBox="0 0 285 285" fill="none" xmlns="http://www.w3.org/2000/svg">
<path fill-rule="evenodd" clip-rule="evenodd" d="M125.445 0.602816C108.443 2.4854 84.4094 10.8531 69.1344 20.2074C50.422 31.6661 33.8665 47.7961 22.7992 65.3527C13.0979 80.7408 9.08415 90.1939 3.4645 110.877C0.112429 123.219 -1.21836 150.542 1.33294 164.862C11.9336 224.375 55.0985 269.409 114.537 282.869C127.182 285.732 158.225 285.705 170.99 282.818C201.842 275.844 226 262.514 246.226 241.308C266.792 219.743 279.434 194.229 283.388 166.306C288.635 129.247 281.029 93.5146 261.239 62.2561C254.543 51.6819 235.267 31.4627 225.197 24.4539C209.975 13.8602 184.842 3.25383 173.318 2.56236C171.209 2.43601 169.195 1.92258 168.842 1.42178C167.886 0.0629657 135.783 -0.542356 125.445 0.602816ZM181.5 7.39919C225.319 19.1553 261.635 54.7636 275.62 99.6815C283.563 125.195 283.864 161.965 276.325 185.537C264.544 222.376 235.085 255.284 201.252 269.404C184.898 276.229 171.801 278.743 149.218 279.394C126.369 280.054 116.884 278.77 99.1015 272.607C88.8142 269.043 86.3647 267.089 92.1838 267.089C101.958 267.089 123.632 260.234 137.763 252.674C161.764 239.832 182.801 216.875 194.741 190.492C196.815 185.908 198.513 181.387 198.513 180.448C198.513 179.451 196.705 178.17 194.179 177.376C190.391 176.186 189.984 175.738 190.959 173.827C191.574 172.625 193.297 171.057 194.789 170.343C196.651 169.454 197.273 168.481 196.772 167.242C194.615 161.915 194.983 160.732 199.457 158.617C204.583 156.192 204.753 155.852 205.61 146.275C205.967 142.284 206.497 137.066 206.786 134.678L207.313 130.338L202.849 132.726C196.76 135.982 186.909 135.606 187.209 132.127C187.318 130.863 188.674 121.265 190.222 110.798C193.388 89.3876 193.762 76.1383 191.429 68.0761C190.558 65.0679 187.744 58.3485 185.175 53.1441C179.249 41.1387 165.766 26.6121 148.448 13.5719C141.698 8.48923 136.522 3.94874 136.946 3.4824C137.37 3.01492 144.617 2.91384 153.052 3.25727C165.188 3.75118 171.125 4.61494 181.5 7.39919ZM143.741 14.1186C162.149 27.5586 176.67 42.8191 182.873 55.2437C185.415 60.339 188.27 68.006 189.216 72.2812C191.183 81.175 190.507 90.7429 185.897 119.264C184.128 130.214 183.627 135.93 184.37 136.71C185.651 138.055 198.009 138.276 201.281 137.013C203.421 136.186 203.477 136.465 202.828 144.769C202.459 149.507 201.867 153.688 201.512 154.061C201.158 154.433 198.982 155.421 196.677 156.258C192.789 157.67 192.488 158.099 192.485 162.254C192.483 165.454 191.625 167.795 189.473 170.478C185.265 175.721 185.515 178.355 190.31 179.298C192.425 179.714 194.413 180.49 194.728 181.024C195.495 182.328 187.249 199.374 181.708 207.933C175.261 217.893 160.212 233.818 150.799 240.641C130.276 255.518 103.731 264.792 81.674 264.792C75.5121 264.792 73.9664 264.281 67.3532 260.061C37.9021 241.266 16.2068 210.836 7.08824 175.537C4.42411 165.221 4.18311 162.479 4.17983 142.464C4.17654 122.186 4.39015 119.826 7.1945 109.154C10.5981 96.1989 18.5718 77.8221 25.2957 67.4421C45.5144 36.2226 76.6459 14.5436 113.068 6.31949C128.392 2.85985 128.281 2.83114 143.741 14.1186ZM251.289 88.5192C246.365 92.1925 239.8 93.0379 233.043 90.8693C226.35 88.7225 223.758 90.3811 229.724 92.9954C237.562 96.4286 250.14 94.6919 255.71 89.406C260.259 85.0894 256.813 84.3991 251.289 88.5192ZM97.2294 98.6408C95.3836 100.055 95.2773 101.369 95.9817 113.992L96.7518 127.796L88.204 128.39C83.5034 128.717 79.287 128.756 78.8357 128.477C78.3844 128.198 78.0141 123.091 78.0141 117.127C78.0141 106.474 78.0601 106.283 80.6191 106.283C83.717 106.283 86.1829 103.563 85.2912 101.129C84.4762 98.9004 77.6483 98.8085 75.912 101.002C74.9951 102.16 74.8505 106.867 75.396 117.714C76.0204 130.118 76.4356 132.7 77.7227 132.183C78.5838 131.836 83.9515 131.552 89.6511 131.552H100.013L99.2823 118.63L98.5516 105.708L101.976 104.372C105.843 102.863 106.445 100.058 103.282 98.2825C100.516 96.7307 99.6536 96.7812 97.2294 98.6408ZM146.01 134.711L145.932 149.93H142.735C137.963 149.93 136.073 151.04 136.073 153.843C136.073 158.648 141.064 160.702 146.004 157.93C147.881 156.877 148.123 155.435 148.123 145.295C148.123 139 148.538 133.849 149.046 133.849C149.966 133.849 152.915 139.452 154.07 143.398C154.408 144.552 155.221 145.131 155.894 144.695C157.673 143.541 156.252 137.775 153.131 133.486C151.65 131.449 149.459 127.468 148.262 124.638L146.086 119.492L146.01 134.711Z" fill="#524957"/>
</svg>
